<svg xmlns="http://www.w3.org/2000/svg" xmlns:xlink="http://www.w3.org/1999/xlink" viewBox="0 0 432.91797 744"><defs><style>.acb3998f-6313-4154-9d4e-a9bc09dfc136{fill:url(#b1d3f119-2d05-491a-972f-2b02045b7853);}.af2eab45-f0e7-4b1b-a651-d915d91e8253{fill:url(#bcf5d729-76b1-4003-80b3-63befbfd171b);}.eacb8ec6-7ea0-43bb-9410-da800d15b3ff{fill:url(#a2ffb370-95a3-4577-9487-908b507255b8);}.edf7a48a-45c6-45be-ab40-64a82c2048d1{fill:url(#f1497be3-ce03-4b13-a1c6-1dac5ce6784b);}.a1c1d8a3-08fd-4da2-b711-147e8b611782{fill:url(#af57ac86-7bb9-45e3-9c33-e29a2375a087);}.b2aef38e-b0f3-4319-8019-1f9e878da053{fill:url(#f20a7e7d-bb88-4565-871f-38d1f15e410b);}</style><linearGradient id="b1d3f119-2d05-491a-972f-2b02045b7853" x1="244.40505" y1="747.05748" x2="260.22355" y2="14.27449" gradientUnits="userSpaceOnUse"><stop offset="0" stop-color="#b21df2"/><stop offset="0.52906" stop-color="#651ec9"/><stop offset="1" stop-color="#241fa6"/></linearGradient><linearGradient id="bcf5d729-76b1-4003-80b3-63befbfd171b" x1="205.01065" y1="116.33968" x2="196.60279" y2="676.29443" xlink:href="#b1d3f119-2d05-491a-972f-2b02045b7853"/><linearGradient id="a2ffb370-95a3-4577-9487-908b507255b8" y1="347.13965" x2="121.74023" y2="347.13965" gradientUnits="userSpaceOnUse"><stop offset="0" stop-color="#00d1d4"/><stop offset="1" stop-color="#00a99d"/></linearGradient><linearGradient id="f1497be3-ce03-4b13-a1c6-1dac5ce6784b" x1="132.78125" y1="347.13965" x2="242.02734" y2="347.13965" xlink:href="#a2ffb370-95a3-4577-9487-908b507255b8"/><linearGradient id="af57ac86-7bb9-45e3-9c33-e29a2375a087" x1="259.45703" y1="347.13965" x2="345.16895" y2="347.13965" xlink:href="#a2ffb370-95a3-4577-9487-908b507255b8"/><linearGradient id="f20a7e7d-bb88-4565-871f-38d1f15e410b" x1="333.5498" y1="347.13965" x2="432.91797" y2="347.13965" xlink:href="#a2ffb370-95a3-4577-9487-908b507255b8"/></defs><g id="b89c80f8-55b8-43d6-b180-8e36c434532e" data-name="Calque 2"><g id="e08e356c-2b00-4121-9aac-e92fa825bcb4" data-name="Logo"><polygon class="acb3998f-6313-4154-9d4e-a9bc09dfc136" points="310.912 260.014 190.298 440.221 317.485 440.221 102.769 744 393.676 396.457 259.807 391.308 378.229 205.952 230.201 208.033 339.613 0 161.98 260.014 310.912 260.014"/><polygon class="af2eab45-f0e7-4b1b-a651-d915d91e8253" points="317.485 440.221 190.298 440.221 310.912 260.014 161.98 260.014 339.613 0 69.302 306.353 232.42 306.353 97.62 483.986 211.003 483.986 102.769 744 317.485 440.221"/><path class="eacb8ec6-7ea0-43bb-9410-da800d15b3ff" d="M79.03027,241.81543h42.71L82.80664,452.46387h-43.873L0,241.81543H42.71094l3.77734,27.021L60.72559,377.793l14.52734-109.5376Z"/><path class="edf7a48a-45c6-45be-ab40-64a82c2048d1" d="M242.02734,422.53711a43.89676,43.89676,0,0,1-1.45214,11.47656,23.89352,23.89352,0,0,1-4.93946,9.44336,24.65488,24.65488,0,0,1-9.29785,6.53711,37.24876,37.24876,0,0,1-14.52734,2.46973h-48.8125a37.232,37.232,0,0,1-14.52735-2.46973,24.624,24.624,0,0,1-9.29785-6.53711,23.84338,23.84338,0,0,1-4.93945-9.44336,43.69088,43.69088,0,0,1-1.45215-11.47656V269.127q0-12.48926,6.82715-19.90283,6.8247-7.40917,21.64648-7.40869h52.29883q14.81837,0,21.64649,7.40869,6.82323,7.40917,6.82714,19.90283ZM178.97852,278.71484q-3.77931,0-3.77735,4.06787V411.20605a5.85937,5.85937,0,0,0,.72656,3.34082c.48145.68165,1.59766,1.01758,3.34082,1.01758H195.249c1.74317,0,2.85547-.33593,3.3418-1.01758a5.90867,5.90867,0,0,0,.72559-3.34082V282.78271q0-4.06566-3.77637-4.06787Z"/><path class="a1c1d8a3-08fd-4da2-b711-147e8b611782" d="M259.457,241.81543h43.292V413.23926H345.169l-7.26368,39.22461H259.457Z"/><path class="b2aef38e-b0f3-4319-8019-1f9e878da053" d="M422.458,241.81543l10.46,39.22412H404.73438V452.46387h-43.001V281.03955H333.5498l11.041-39.22412Z"/></g></g></svg>